PathFileType	4	(X/Y/Z)	C:\Users\WrightLab\Desktop\Jo\P5V114.trc
DataRate	CameraRate	NumFrames	NumMarkers	Units	OrigDataRate	OrigDataStartFrame	OrigNumFrames
100.00	100.00	      54	19	mm	100.00	1	      1045
Frame#	Time	Headset_Front			Headset_Back			Headset_Left			Headset_Right			Left_Shoulder			Right_Shoulder			Sternum			C7			Left Elbow			Right Elbow			Left Wrist			Right Wrist			Left ASIS			Right ASIS			S2			Left Knee			Right Knee			Left Ankle			Right Ankle			
		X1	Y1	Z1	X2	Y2	Z2	X3	Y3	Z3	X4	Y4	Z4	X5	Y5	Z5	X6	Y6	Z6	X7	Y7	Z7	X8	Y8	Z8	X9	Y9	Z9	X10	Y10	Z10	X11	Y11	Z11	X12	Y12	Z12	X13	Y13	Z13	X14	Y14	Z14	X15	Y15	Z15	X16	Y16	Z16	X17	Y17	Z17	X18	Y18	Z18	X19	Y19	Z19	

1	0.000																																		-107.00992	1184.77466	1553.81274													-95.37898	557.84985	1824.76660							
2	0.010																																		-108.91694	1184.88416	1550.53552													-100.61881	560.07867	1818.77246							
3	0.020																																		-111.18487	1184.75110	1546.71191													-105.31067	562.79742	1812.78479							
4	0.030																																		-111.95480	1186.01538	1543.54480													-109.42103	566.14850	1807.98718							
5	0.040																												6.43350	1282.44946	1739.44690				-113.74737	1186.20398	1539.24805													-113.61342	567.32867	1802.62598							
6	0.050																												4.91336	1282.82825	1736.90771				-115.33291	1186.84546	1535.45850													-118.21825	568.68042	1797.68164							
7	0.060																												2.86563	1283.66309	1732.47644				-117.22479	1187.31335	1531.51233													-122.37096	570.58154	1794.94092							
8	0.070																												0.97663	1283.92493	1731.22314				-118.46617	1187.18469	1528.28699													-127.23711	573.05707	1793.72998							
9	0.080																												-0.85017	1284.38770	1726.90979				-119.97492	1188.00903	1524.57556													-132.49284	572.76196	1791.10767							
10	0.090																												-2.64511	1284.85461	1723.46960				-122.30820	1187.59399	1519.78711													-137.55765	574.64337	1786.48486							
11	0.100																												-4.06686	1284.86646	1720.24646				-123.22649	1187.97937	1516.92676													-142.55728	574.67810	1786.62500							
12	0.110																												-5.70614	1285.14099	1715.68481				-125.23819	1187.50989	1512.29688													-146.82285	574.73871	1785.20850							
13	0.120																												-7.35734	1284.98730	1712.68640				-126.38364	1188.52087	1507.13599													-152.21693	573.80450	1787.62646							
14	0.130																												-8.84498	1285.29541	1707.38562				-128.12811	1188.10339	1502.85498													-156.63980	573.69659	1785.08899							
15	0.140																												-10.08684	1284.97107	1704.50122				-129.45818	1187.98950	1499.13843													-160.89728	573.40259	1784.03101							
16	0.150																												-11.96469	1284.90857	1700.63745				-130.87120	1188.12305	1495.52832													-164.77597	573.64142	1782.81873							
17	0.160																												-13.39150	1284.78699	1695.35925				-132.11824	1187.69421	1491.00842													-168.53989	573.68890	1780.95190							
18	0.170																												-14.96847	1284.29834	1691.08643				-133.59897	1186.57617	1485.78186													-171.35220	572.40643	1781.35022							
19	0.180																												-16.02948	1283.96704	1686.63000				-134.98853	1186.66833	1481.70251													-174.37131	571.25702	1781.72095							
20	0.190																												-17.44831	1283.44678	1682.85925				-136.32262	1186.46973	1477.32166													-176.85326	570.91376	1780.29712							
21	0.200																												-18.70022	1282.57947	1677.83618				-136.56877	1186.38550	1472.95313													-178.32587	568.72925	1779.93408							
22	0.210																												-20.06307	1281.45752	1673.13062				-138.37718	1185.37366	1468.42957													-180.10834	567.61664	1779.91101							
23	0.220																												-21.07184	1280.59912	1669.73755				-139.77896	1184.30249	1462.74023													-180.92329	565.91724	1780.89429							
24	0.230																												-22.16141	1279.62756	1663.71277				-140.83031	1185.04492	1457.65625													-181.77831	564.60773	1779.34863							
25	0.240																												-22.80361	1278.29248	1660.16357				-142.14232	1184.24731	1452.54700													-182.53087	563.26770	1778.22180							
26	0.250																												-23.50447	1276.47986	1655.89954				-143.11888	1183.28760	1447.14905													-183.48775	559.86346	1779.45020							
27	0.260																												-24.31019	1275.48962	1650.58679				-142.90636	1183.82703	1442.66846													-184.68394	558.79987	1779.50793							
28	0.270																												-24.96766	1273.83984	1645.32068				-144.00397	1183.91577	1436.52612													-185.25229	557.27502	1777.78137							
29	0.280																												-25.62706	1272.48596	1640.70459				-143.75371	1183.59009	1431.78259													-185.60767	554.13452	1777.47766							
30	0.290																												-26.47957	1270.84680	1635.64832				-144.52046	1183.66016	1426.09668													-186.13167	552.31207	1776.10925							
31	0.300																												-27.36998	1269.34448	1630.61523				-143.89363	1183.84705	1420.27551													-186.36707	550.09637	1774.22412							
32	0.310																												-28.19950	1268.01563	1624.59290				-143.97885	1183.25537	1414.63367													-186.77086	547.57794	1772.90955							
33	0.320																												-29.15427	1266.46899	1619.03381				-146.01904	1183.66650	1408.70288													-187.28423	544.62872	1772.22375							
34	0.330																												-29.77042	1264.69543	1613.80164				-146.62796	1183.06189	1402.74756													-187.43211	542.91986	1767.36438							
35	0.340																												-30.23789	1263.25439	1608.60120				-146.96622	1183.10645	1396.59570	-424.37909	977.44891	1890.36951										-188.58551	538.47382	1769.59814							
36	0.350																												-30.76302	1261.88745	1602.09692				-147.18327	1183.06958	1390.45557	-426.95950	977.58252	1887.24133										-188.92432	536.65088	1764.06689							
37	0.360																												-31.23709	1260.60608	1596.65674				-147.59447	1182.36462	1384.40979	-429.76901	978.02264	1883.33630										-189.77493	534.73285	1764.07068							
38	0.370																												-32.04515	1259.80298	1591.67346				-147.78062	1181.86707	1377.95166	-432.51154	978.53345	1879.70947										-190.81575	533.78772	1761.98975							
39	0.380																												-32.83772	1259.03101	1586.42078				-148.48778	1182.51416	1372.28601	-435.17175	978.99634	1876.31311										-191.20712	535.14911	1758.11792							
40	0.390																												-33.75358	1258.08630	1581.27795				-148.92896	1181.63110	1366.66541	-437.26489	980.07703	1872.75891										-192.09015	535.07300	1757.15442							
41	0.400																												-34.77925	1257.65503	1575.53052				-150.10410	1181.36646	1360.87793	-439.34564	980.95007	1868.88928										-192.48506	536.62750	1753.71655							
42	0.410																												-35.53107	1257.52417	1569.56824				-150.44835	1181.28625	1355.90601	-441.85495	981.99854	1865.61279										-193.22276	538.22339	1749.49646							
43	0.420																												-36.30486	1256.85425	1564.54065				-150.80051	1180.80750	1349.68616	-443.34265	983.06366	1861.80981										-193.60570	538.30725	1745.18188							
44	0.430																												-36.79238	1256.47681	1559.69983				-151.67987	1180.00122	1344.33533	-445.61417	983.85193	1858.62170										-194.18102	537.63867	1742.36841							
45	0.440																												-37.45365	1255.85706	1553.78662				-152.45131	1180.75732	1339.63831	-447.59665	984.68121	1855.15332										-194.63809	539.20825	1738.82336							
46	0.450																												-38.25687	1255.49561	1547.86963				-153.79689	1180.27332	1334.50415	-449.34140	985.55090	1851.64014										-194.95279	539.03491	1737.12061							
47	0.460																												-38.68838	1254.73083	1543.31445				-153.85335	1179.36780	1328.89136	-451.88120	986.10938	1848.28967										-195.72604	538.43750	1735.43311							
48	0.470																												-39.74989	1254.04712	1537.73730				-154.47710	1179.24390	1324.59302	-453.96863	986.82214	1844.95715										-196.10214	537.92841	1732.56091							
49	0.480																												-40.80684	1253.66724	1533.58179				-156.27133	1178.57300	1319.26892	-456.26761	987.73956	1841.48120										-196.35320	537.59143	1729.94080							
50	0.490																												-42.56881	1252.85840	1528.85303				-156.56650	1178.20105	1315.04211	-458.78314	988.35706	1838.28015										-197.25772	537.55054	1728.12610							
51	0.500																												-43.43940	1252.51379	1523.71399				-157.56778	1177.64929	1310.32983	-461.19858	988.85907	1835.22876										-198.00188	537.30573	1725.00293							
52	0.510																												-44.50035	1252.35645	1518.86108				-159.45348	1176.49829	1306.20435	-463.53140	989.63293	1832.22815										-198.88835	537.23059	1723.47913							
53	0.520																												-45.44306	1251.84448	1513.89673				-161.81258	1176.03967	1301.60779	-465.98639	990.23157	1829.00745										-199.69762	536.77380	1723.64929							
54	0.530																												-46.72216	1250.41028	1509.55530				-163.43282	1175.41968	1297.21082	-468.59808	990.74890	1826.43384										-200.58141	536.27032	1720.69592							
